<?xml version="1.0" encoding="UTF-8"?>
<svg width="752pt" height="752pt" version="1.1" viewBox="0 0 752 752" xmlns="http://www.w3.org/2000/svg">
 <g>
  <rect width="752" height="752" fill="#fff"/>
  <path d="m223.69 481.12h-30.867c-3.7344 0-6.7656 3.0273-6.7656 6.7656s3.0273 6.7656 6.7656 6.7656h30.867c3.7344 0 6.7656-3.0273 6.7656-6.7656 0-3.7422-3.0312-6.7656-6.7656-6.7656z"/>
  <path d="m159.51 524.82h175.01v25.051c-13.234 1.2344-23.68 12.703-23.68 26.785v16.801c0 3.7383 3.0273 6.7656 6.7656 6.7656h116.8c3.7344 0 6.7656-3.0273 6.7656-6.7656v-16.801c0-14.086-10.445-25.551-23.68-26.785v-25.051h175c3.7344 0 6.7656-3.0273 6.7656-6.7656v-359.5c0-3.7383-3.0273-6.7656-6.7656-6.7656h-432.99c-3.7344 0-6.7656 3.0273-6.7656 6.7656v359.5c0 3.7383 3.0273 6.7656 6.7656 6.7656zm268.13 51.836v10.035h-103.27v-10.035c0-7.4453 5.5859-13.496 12.453-13.496h78.367c6.8633 0 12.449 6.0508 12.449 13.496zm-23.68-27.027h-55.914v-24.809h55.914zm6.7656-38.34h-244.45v-46.797h419.46v46.797zm131.54-264.88h-332.52v-40.855h332.52zm-332.52 13.531h332.52v191.02h-332.52zm375.99-94.621v285.64h-29.938v-252.17c0-3.7383-3.0273-6.7656-6.7656-6.7656h-346.05c-3.7344 0-6.7656 3.0273-6.7656 6.7656v252.17h-29.934v-285.64z"/>
  <path d="m499.87 232.75h17.242c3.7344 0 6.7656-3.0273 6.7656-6.7656s-3.0273-6.7656-6.7656-6.7656h-17.242c-3.7344 0-6.7656 3.0273-6.7656 6.7656s3.0273 6.7656 6.7656 6.7656z"/>
  <path d="m452.77 232.75h17.242c3.7344 0 6.7656-3.0273 6.7656-6.7656s-3.0273-6.7656-6.7656-6.7656h-17.242c-3.7344 0-6.7656 3.0273-6.7656 6.7656s3.0312 6.7656 6.7656 6.7656z"/>
  <path d="m405.66 232.75h17.242c3.7344 0 6.7656-3.0273 6.7656-6.7656s-3.0273-6.7656-6.7656-6.7656h-17.242c-3.7344 0-6.7656 3.0273-6.7656 6.7656s3.0273 6.7656 6.7656 6.7656z"/>
  <path d="m234.89 232.75h133.21c3.7344 0 6.7656-3.0273 6.7656-6.7656s-3.0273-6.7656-6.7656-6.7656h-133.21c-3.7344 0-6.7656 3.0273-6.7656 6.7656s3.0312 6.7656 6.7656 6.7656z"/>
  <path d="m324.69 352.75c-0.070312-0.027344-0.13672-0.058594-0.21094-0.082031-0.097657-0.03125-0.18359-0.082031-0.28516-0.11328-0.34766-0.10938-0.69141-0.054688-1.0391-0.10547-0.45312-0.0625-0.89062-0.16406-1.3477-0.13672-0.52734 0.03125-1.0039 0.1875-1.5 0.33594-0.33203 0.097656-0.66406 0.14844-0.97656 0.30078-0.51562 0.24609-0.94531 0.60547-1.3828 0.97656-0.20703 0.17187-0.45703 0.25391-0.64453 0.45312-5.293 5.6016-13.168 8.8203-21.609 8.8203-8.4414 0-16.316-3.2188-21.609-8.8203-0.22266-0.23437-0.51563-0.33984-0.76172-0.53516-0.40234-0.32422-0.78125-0.65625-1.2461-0.87891-0.35547-0.16797-0.72656-0.23047-1.1016-0.33594-0.46484-0.13281-0.91016-0.28516-1.3984-0.3125-0.46094-0.027343-0.90234 0.074219-1.3594 0.13672-0.34375 0.050781-0.68359-0.003906-1.0273 0.10547-0.097656 0.03125-0.18359 0.082031-0.28125 0.10938-0.074218 0.027344-0.14062 0.054687-0.21484 0.085937-19.551 6.1992-32.664 23.746-32.664 43.887v24.75c0 3.7383 3.0273 6.7656 6.7656 6.7656h109.8c3.7344 0 6.7656-3.0273 6.7656-6.7656v-24.75c-0.003906-20.145-13.121-37.691-32.672-43.891zm19.137 61.871h-17.047v-20.461c0-3.7383-3.0273-6.7656-6.7656-6.7656-3.7344 0-6.7656 3.0273-6.7656 6.7656v20.461h-35.113v-20.461c0-3.7383-3.0273-6.7656-6.7656-6.7656-3.7344 0-6.7656 3.0273-6.7656 6.7656v20.461h-17.047v-17.984c0-13.094 7.9727-24.602 20.109-29.781 7.5742 6.3086 17.535 9.875 28.023 9.875 10.488 0 20.453-3.5664 28.023-9.875 12.137 5.1836 20.109 16.688 20.109 29.781z"/>
  <path d="m295.7 352.59c18.672 0 33.859-15.188 33.859-33.859 0-18.664-15.188-33.855-33.859-33.855-18.668 0-33.855 15.188-33.855 33.855-0.003906 18.668 15.188 33.859 33.855 33.859zm0-54.184c11.207 0 20.328 9.1172 20.328 20.324 0 11.211-9.1211 20.328-20.328 20.328-11.207 0-20.324-9.1172-20.324-20.328-0.003906-11.207 9.1133-20.324 20.324-20.324z"/>
  <path d="m511.21 288.79h-142.24c-3.7344 0-6.7656 3.0273-6.7656 6.7656 0 3.7383 3.0273 6.7656 6.7656 6.7656h142.24c3.7344 0 6.7656-3.0273 6.7656-6.7656 0-3.7383-3.0273-6.7656-6.7656-6.7656z"/>
  <path d="m511.21 329.43h-142.24c-3.7344 0-6.7656 3.0273-6.7656 6.7656 0 3.7383 3.0273 6.7656 6.7656 6.7656h142.24c3.7344 0 6.7656-3.0273 6.7656-6.7656 0-3.7383-3.0273-6.7656-6.7656-6.7656z"/>
  <path d="m511.21 370.07h-116.38c-3.7344 0-6.7656 3.0273-6.7656 6.7656 0 3.7383 3.0273 6.7656 6.7656 6.7656h116.38c3.7344 0 6.7656-3.0273 6.7656-6.7656 0-3.7383-3.0273-6.7656-6.7656-6.7656z"/>
  <path d="m511.21 410.71h-116.38c-3.7344 0-6.7656 3.0273-6.7656 6.7656s3.0273 6.7656 6.7656 6.7656h116.38c3.7344 0 6.7656-3.0273 6.7656-6.7656 0-3.7422-3.0273-6.7656-6.7656-6.7656z"/>
 </g>
</svg>
