<?xml version="1.0" encoding="UTF-8"?>
<svg width="752pt" height="752pt" version="1.1" viewBox="0 0 752 752" xmlns="http://www.w3.org/2000/svg">
 <path d="m376 162.52c-117.9 0-213.48 95.578-213.48 213.48s95.578 213.48 213.48 213.48 213.48-95.578 213.48-213.48-95.578-213.48-213.48-213.48zm109.91 283-11.566 32.715-8.5898 1.3203-3.4727-15.203 3.6367-8.4258v-8.5898l1.9844-5.6172h7.2695l9.0898-16.191 4.793 16.523zm-6.0078-80.762-22.727 20.453-7.8281 16.414 4.5469 18.938 1.7656 18.18-8.5859 5.8047-11.109 11.359 2.2734 17.676-9.8477 5.3047v8.8359l-23.734 24.238-24.238 2.2734-5.8047-1.5156 1.0078-5.0469-2.4062-13.887-6.4297-4.2891-1.2656-21.715-7.3203-11.617-1.7656-10.352 8.332-18.434-5.8047-25.754-11.109-16.664-0.25-19.695h-8.8359l-6.3125-7.8281-34.59 4.7969-16.664-6.5625-21.211-30.047 3.7891-20.703-3.7891-8.5859 13.383-22.977 11.109-7.8281 9.8477-16.664 4.2891-7.0703 7.8281 2.7734 14.391-6.8203h29.543l4.7969 10.602 29.793 12.875v-6.0625l5.5547-4.7969 23.48 10.102 21.715-1.0078 1.2656 8.332-5.3047 5.5547 17.676 43.426 13.383 13.633 2.2734 6.5625h18.684l6.8203-4.0391 1.5156 7.5742z"/>
</svg>
